<svg width="67" height="64" viewBox="0 0 67 64" fill="none" xmlns="http://www.w3.org/2000/svg">
<path d="M48.6078 27.9515L50.1395 26.0891C52.0115 23.8316 53.8836 21.5708 55.7557 19.3066C55.9142 19.1089 56.111 18.9448 56.3343 18.824C59.0709 17.4696 61.8059 16.1151 64.5629 14.8148C65.2896 14.4762 66.0946 14.2849 67 13.9784C66.9886 14.3282 66.9522 14.6767 66.8911 15.0213C66.0691 18.0825 65.1977 21.1419 64.3672 24.2114C63.9996 25.5659 63.0635 26.5513 62.2245 27.6095C59.5015 31.0363 56.8176 34.4919 54.0708 37.8984C53.579 38.5079 53.6436 39.0514 53.6777 39.7438C53.7219 40.6022 54.0555 41.0187 54.755 41.4962C58.4838 44.0358 59.9202 49.4537 57.381 53.766C54.4333 58.7674 49.9574 60.9921 44.2135 60.8346C43.0299 60.8149 41.849 60.7159 40.6787 60.5383C39.3325 60.3216 38.2144 59.5919 37.2035 58.6929C36.0343 57.6516 34.5485 57.3503 33.0798 57.0354C32.8557 57.0217 32.6321 57.0691 32.4331 57.1725C30.2768 58.041 28.1001 58.6963 25.7498 57.9327C25.6405 57.9133 25.5283 57.9157 25.4199 57.9398C25.3115 57.964 25.209 58.0093 25.1184 58.0732C24.2181 58.698 23.277 59.2838 22.4618 60.0084C19.555 62.5921 16.1648 64.043 12.2897 63.999C10.8985 63.9522 9.54279 63.5499 8.3532 62.8308C6.68196 61.8149 5.01241 60.6179 3.76834 59.1416C1.49633 56.4445 0.0888729 53.2682 0.00207698 49.6518C-0.0302587 48.2973 0.311822 47.041 1.24956 45.9829C2.70843 44.3054 4.66879 43.1365 6.84364 42.6475C7.0802 42.5933 7.41717 42.2733 7.42738 42.0634C7.63331 38 9.12926 34.4326 11.7825 31.3783C13.2921 29.6429 14.9616 28.0429 16.5869 26.3532C14.7148 24.5856 13.6716 22.2187 13.2121 19.6333C13.0549 18.6026 12.603 17.6387 11.9101 16.8567C10.6389 15.4265 9.88158 13.6165 9.75726 11.7114C9.63132 9.65426 10.3784 7.79863 11.5085 6.08014C12.7849 4.13817 14.5719 3.10031 16.8915 3.08338C18.0063 3.07491 19.121 3.273 20.2374 3.33395C20.5054 3.32417 20.7652 3.24033 20.988 3.09184C24.3288 1.10585 27.8721 -0.101322 31.8187 0.442159C32.748 0.570834 33.6636 0.950086 34.5298 1.34119C35.1374 1.61208 35.5697 1.74753 36.2317 1.34119C38.8118 -0.219839 41.4718 -0.436555 44.3258 0.787548C46.9876 1.92869 48.6724 5.9684 48.0206 8.37767C47.6803 9.63394 47.0778 10.8276 46.5042 12.0076C46.2726 12.4063 46.1992 12.8768 46.2983 13.3266C46.6778 15.189 47.1391 17.0683 46.797 19.0069C46.5111 20.6339 45.9069 22.0748 44.593 23.1719C43.7966 23.839 43.9548 24.5585 44.7785 25.1122C46.0703 25.9943 47.2973 26.9763 48.6078 27.9515ZM62.9444 16.8025C61.1268 17.7184 59.2854 18.6395 57.4525 19.5775C57.3282 19.6418 57.1631 19.867 57.1955 19.9465C57.2866 20.1044 57.4229 20.2317 57.5869 20.3123C58.0311 20.5747 58.5434 20.7541 58.9314 21.0809C59.7057 21.7294 60.3507 21.7412 61.0043 20.9996C61.6969 20.2157 62.3522 19.3997 63.0857 18.6564C63.6983 18.0334 63.7817 17.4916 62.9444 16.8025Z" fill="white"/>
</svg>
