<svg width="118" height="118" viewBox="0 0 118 118" fill="none" xmlns="http://www.w3.org/2000/svg">
<circle cx="59" cy="59" r="57.5" fill="white" stroke="black" stroke-width="3"/>
<path d="M90 88V80.3333C90 76.2667 88.367 72.3666 85.4602 69.491C82.5533 66.6155 78.6109 65 74.5 65H43.5C39.3891 65 35.4467 66.6155 32.5398 69.491C29.633 72.3666 28 76.2667 28 80.3333V88" stroke="black" stroke-width="8.33333" stroke-linecap="round" stroke-linejoin="round"/>
<path d="M58.5 49C67.0604 49 74 42.0604 74 33.5C74 24.9396 67.0604 18 58.5 18C49.9396 18 43 24.9396 43 33.5C43 42.0604 49.9396 49 58.5 49Z" stroke="black" stroke-width="8.33333" stroke-linecap="round" stroke-linejoin="round"/>
</svg>
