<svg width="1512" height="198" viewBox="0 0 1512 198" fill="none" xmlns="http://www.w3.org/2000/svg">
<g filter="url(#filter0_d_531_1472)">
<path d="M0 164.4L63 125.235C126 85.6503 252 7.95025 378 7.63525C504 7.95025 630 85.6503 756 102.765C882 119.25 1008 75.1503 1134 58.0353C1260 41.5503 1386 52.0503 1449 58.0353L1512 63.6003V198H1449C1386 198 1260 198 1134 198C1008 198 882 198 756 198C630 198 504 198 378 198C252 198 126 198 63 198H0V164.4Z" fill="#F8E5CE"/>
</g>
<defs>
<filter id="filter0_d_531_1472" x="-80" y="0.635254" width="1592" height="197.365" filterUnits="userSpaceOnUse" color-interpolation-filters="sRGB">
<feFlood flood-opacity="0" result="BackgroundImageFix"/>
<feColorMatrix in="SourceAlpha" type="matrix" values="0 0 0 0 0 0 0 0 0 0 0 0 0 0 0 0 0 0 127 0" result="hardAlpha"/>
<feOffset dx="-80" dy="-7"/>
<feComposite in2="hardAlpha" operator="out"/>
<feColorMatrix type="matrix" values="0 0 0 0 1 0 0 0 0 0.807738 0 0 0 0 0.575 0 0 0 1 0"/>
<feBlend mode="normal" in2="BackgroundImageFix" result="effect1_dropShadow_531_1472"/>
<feBlend mode="normal" in="SourceGraphic" in2="effect1_dropShadow_531_1472" result="shape"/>
</filter>
</defs>
</svg>
